PathFileType	4	(X/Y/Z)	/Users/itak/Documents/Research/Walk-IL/dataset/trc/00075_00006.trc
DataRate	CameraRate	NumFrames	NumMarkers	Units	OrigDataRate	OrigDataStartFrame	OrigNumFrames
100.000000	100.000000	4	53	mm	100.000000	546	729
Frame#	Time	RPSI			LPSI			L3			STRN			T10			C7			CLAV			RBAK			LBAK			LSHO			LUPA			LAEL			LAOL			LWTS			LWPS			LFRA			LIFD			LHPS			LHTS			RSHO			RUPA			RAEL			RAOL			RWTS			RWPS			RFRA			RIFD			RHTS			RHPS			RBHD			LFHD			RFHD			LBHD			LHIP			RHIP			RASI			LASI			LKNE			LTHI			LANK			LTIP			LTOE			LMT1			LMT5			LHEE			RKNE			RTHI			RANK			RTIP			RTOE			RMT1			RMT5			RHEE			
		X1	Y1	Z1	X2	Y2	Z2	X3	Y3	Z3	X4	Y4	Z4	X5	Y5	Z5	X6	Y6	Z6	X7	Y7	Z7	X8	Y8	Z8	X9	Y9	Z9	X10	Y10	Z10	X11	Y11	Z11	X12	Y12	Z12	X13	Y13	Z13	X14	Y14	Z14	X15	Y15	Z15	X16	Y16	Z16	X17	Y17	Z17	X18	Y18	Z18	X19	Y19	Z19	X20	Y20	Z20	X21	Y21	Z21	X22	Y22	Z22	X23	Y23	Z23	X24	Y24	Z24	X25	Y25	Z25	X26	Y26	Z26	X27	Y27	Z27	X28	Y28	Z28	X29	Y29	Z29	X30	Y30	Z30	X31	Y31	Z31	X32	Y32	Z32	X33	Y33	Z33	X34	Y34	Z34	X35	Y35	Z35	X36	Y36	Z36	X37	Y37	Z37	X38	Y38	Z38	X39	Y39	Z39	X40	Y40	Z40	X41	Y41	Z41	X42	Y42	Z42	X43	Y43	Z43	X44	Y44	Z44	X45	Y45	Z45	X46	Y46	Z46	X47	Y47	Z47	X48	Y48	Z48	X49	Y49	Z49	X50	Y50	Z50	X51	Y51	Z51	X52	Y52	Z52	X53	Y53	Z53	

547	5.46	757.26025390625	1009.44921875	491.927001953125	907.7542724609375	999.7061157226562	578.2672119140625	834.7525634765625	1066.918823242188	539.5790405273438	681.9376831054688	1272.986328125	738.8692016601562	846.3842163085938	1200.167602539062	525.4939575195312	806.3945922851562	1468.352294921875	562.5067749023438	698.7257690429688	1385.957275390625	708.2218627929688	789.4918212890625	1324.406860351562	475.1344909667969	900.2587890625	1435.529296875	602.1998901367188	900.7066650390625	1446.215087890625	725.3244018554688	982.3146362304688	1327.334106445312	754.454833984375	1011.445190429688	1119.12109375	794.082275390625	966.0186767578125	1092.903930664062	700.71240234375	927.4100341796875	881.2828979492188	870.5498046875	1007.394775390625	872.20654296875	846.7268676757812	1016.059143066406	1012.647888183594	826.2025146484375	914.4965209960938	696.2854614257812	900.914794921875	993.23876953125	793.9925537109375	882.7763671875	925.1431884765625	802.4042358398438	902.4674682617188	633.9014282226562	1427.55322265625	506.0107727050781	596.96630859375	1359.961669921875	456.5160217285156	595.1453247070312	1104.315673828125	395.8043518066406	647.7833862304688	1077.024291992188	475.3809814453125	506.9807434082031	858.2083129882812	529.3564453125	519.9650268554688	842.60498046875	444.9264526367188	575.44287109375	1022.447143554688	397.8636169433594	500.2797546386719	667.104736328125	531.3309936523438	496.6568603515625	750.423095703125	543.8192138671875	500.2158813476562	751.8018188476562	466.80126953125	803.5653076171875	1667.931030273438	674.6856689453125	589.9887084960938	1659.930297851562	641.7890625	644.5718994140625	1675.3876953125	755.22900390625	738.3001098632812	1643.388549804688	556.2716674804688	926.87060546875	947.9476928710938	719.3245239257812	656.412109375	937.8844604492188	504.9991149902344	604.03515625	960.648681640625	619.7523193359375	820.0597534179688	963.4102783203125	779.3480224609375	823.1380615234375	499.0119018554688	884.7904663085938	877.3323974609375	641.3151245117188	841.0968017578125	1057.306030273438	208.3448028564453	551.5233154296875	958.6218872070312	342.6381225585938	718.486572265625	991.249755859375	72.58628845214844	684.9834594726562	957.1299438476562	101.628532409668	631.2677001953125	1065.601440429688	130.0336456298828	626.7737426757812	1002.028625488281	241.8572845458984	487.762451171875	667.3231811523438	501.1103210449219	677.0908813476562	616.2452392578125	761.4405517578125	604.924560546875	790.7122192382812	32.20599746704102	670.3595581054688	690.1337890625	374.417724609375	678.7086181640625	702.68212890625	38.45703887939453	871.5692749023438	769.982666015625	45.27700424194336	843.2337036132812	710.0216064453125	41.95937347412109	764.4500122070312	862.3319091796875	35.55997085571289	664.7027587890625	
548	5.47	756.1268310546875	1010.0224609375	498.3038330078125	905.0618286132812	1000.212524414062	587.3240356445312	832.6197509765625	1067.522338867188	547.0845947265625	676.8927612304688	1273.843383789062	744.0787353515625	843.9281005859375	1200.879516601562	532.8695068359375	803.4813232421875	1469.073120117188	569.1407470703125	694.0507202148438	1386.716796875	713.5777587890625	787.6268920898438	1325.112915039062	481.6304321289062	896.7379150390625	1436.255981445312	609.9799194335938	895.8749389648438	1447.09814453125	733.0986938476562	977.4025268554688	1328.260986328125	762.8432006835938	1006.300537109375	1119.789184570312	801.5933227539062	961.646484375	1094.084716796875	707.7412719726562	921.8961181640625	881.2783203125	875.8189697265625	1002.108276367188	872.5105590820312	852.6281127929688	1010.801147460938	1013.122924804688	833.111572265625	909.1892700195312	696.0758056640625	904.7977905273438	987.8518676757812	794.00439453125	887.9559936523438	919.6663208007812	802.1995849609375	907.2689819335938	631.6834106445312	1428.275390625	510.59716796875	595.2973022460938	1360.633911132812	460.7436828613281	593.971923828125	1104.634643554688	400.5994262695312	645.7066040039062	1077.588745117188	480.9839172363281	503.9727478027344	859.802734375	535.287353515625	517.8317260742188	843.4035034179688	451.1254577636719	574.0833129882812	1022.665710449219	403.0279541015625	496.9664916992188	668.7415771484375	539.1107788085938	493.3114624023438	752.1844482421875	550.7197265625	497.6630249023438	752.7938842773438	473.7356567382812	799.7245483398438	1668.6669921875	680.8285522460938	586.3831176757812	1660.9267578125	646.3068237304688	640.1351318359375	1676.315551757812	760.157470703125	735.3375854492188	1644.1640625	561.9166259765625	921.3299560546875	948.9354248046875	728.9677734375	655.197021484375	938.2476806640625	509.2254028320312	600.5467529296875	961.0393676757812	622.9568481445312	813.30517578125	964.3214721679688	786.6808471679688	809.7376098632812	503.0885925292969	897.7269897460938	866.3379516601562	644.1836547851562	853.6234741210938	1050.469848632812	202.7074584960938	578.6507568359375	948.6259155273438	342.0060729980469	738.8378295898438	979.5972290039062	72.64342498779297	715.1486206054688	947.2440795898438	99.70400238037109	659.2420654296875	1055.953369140625	127.3146667480469	657.0084838867188	997.41015625	234.1378021240234	511.9377746582031	665.9773559570312	500.8392028808594	678.2103271484375	614.4132690429688	761.4957275390625	607.5375366210938	790.76611328125	32.30070495605469	670.4229125976562	689.3322143554688	374.3527221679688	679.554931640625	702.8280029296875	38.28924179077148	871.8357543945312	769.9281005859375	45.26815795898438	843.3222045898438	709.9627685546875	41.89809036254883	764.50927734375	862.3773803710938	35.83117294311523	664.7908325195312	
549	5.48	755.0990600585938	1010.485778808594	504.62548828125	902.3651733398438	1000.639892578125	596.4067993164062	830.5410766601562	1068.063232421875	554.5660400390625	671.8111572265625	1274.556274414062	749.2025146484375	841.448974609375	1201.533081054688	540.2213745117188	800.5235595703125	1469.71728515625	575.7612915039062	689.3685913085938	1387.328369140625	718.9017944335938	785.7256469726562	1325.763305664062	488.0972595214844	893.1543579101562	1436.901245117188	617.7516479492188	890.9454345703125	1447.872680664062	740.8529663085938	972.4176635742188	1329.1044921875	771.226318359375	1001.166381835938	1120.39208984375	809.1583862304688	957.364501953125	1095.183349609375	714.8030395507812	916.3777465820312	881.275390625	881.17333984375	996.8118896484375	872.7461547851562	858.6170043945312	1005.533386230469	1013.53173828125	840.0850830078125	903.9170532226562	695.8674926757812	908.6306762695312	982.3970947265625	793.9381103515625	893.1840209960938	914.1013793945312	801.95654296875	912.0672607421875	629.4249877929688	1428.8935546875	515.1826782226562	593.5889892578125	1361.21533203125	464.9559020996094	592.7423706054688	1104.86376953125	405.2772827148438	643.5819091796875	1078.04443359375	486.4507446289062	500.9061584472656	861.352783203125	541.122314453125	515.7000122070312	844.0866088867188	457.2730407714844	572.673828125	1022.79833984375	408.0709533691406	493.6526794433594	670.3394775390625	546.9081420898438	489.9202270507812	753.90625	557.5795288085938	495.1216125488281	753.6990966796875	480.6414489746094	795.8681030273438	1669.2939453125	686.8903198242188	582.7974243164062	1661.856201171875	650.7640380859375	635.686279296875	1677.22607421875	765.001220703125	732.3652954101562	1644.782470703125	567.5020141601562	915.7110595703125	949.8304443359375	738.5730590820312	654.1170043945312	938.5238647460938	513.4003295898438	597.1585083007812	961.322509765625	626.0235595703125	806.5108642578125	965.134033203125	793.9117431640625	796.3223266601562	507.0546875	909.8802490234375	855.2697143554688	646.9240112304688	865.5355834960938	1042.591064453125	196.2670745849609	606.02685546875	938.0709838867188	340.9022827148438	758.9561157226562	966.4879760742188	72.31346130371094	745.3046875	936.0311889648438	97.36962127685547	687.324462890625	1044.970703125	124.0075378417969	687.3626708984375	991.91455078125	225.5547332763672	536.45458984375	664.692626953125	500.5849304199219	679.4368896484375	612.6857299804688	761.4992065429688	610.04541015625	790.8613891601562	32.42244720458984	670.5150146484375	688.5457763671875	374.2848815917969	680.5192260742188	703.0045166015625	38.08445358276367	872.1536865234375	769.8841552734375	45.2411003112793	843.4412841796875	709.9281616210938	41.8388557434082	764.6117553710938	862.4351806640625	36.12062072753906	664.9041748046875	
550	5.49	754.160888671875	1010.857727050781	510.90380859375	899.6600341796875	1001.002319335938	605.5204467773438	828.5135498046875	1068.540283203125	562.0084838867188	666.6826171875	1275.124267578125	754.2318115234375	838.9443359375	1202.12646484375	547.5462036132812	797.5228881835938	1470.28076171875	582.3756103515625	684.6939086914062	1387.808349609375	724.2056274414062	783.7976684570312	1326.352905273438	494.5379638671875	889.519775390625	1437.458251953125	625.5181274414062	885.9232177734375	1448.52490234375	748.5878295898438	967.3535766601562	1329.847412109375	779.6077270507812	996.02685546875	1120.915405273438	816.7877197265625	953.1688842773438	1096.181274414062	721.9053344726562	910.82373046875	881.2450561523438	886.5819702148438	991.5050048828125	872.9070434570312	864.7171630859375	1000.242614746094	1013.863708496094	847.1395874023438	898.6267700195312	695.6346435546875	912.4476928710938	976.8733520507812	793.7944946289062	898.4985961914062	908.4340209960938	801.6651611328125	916.8780517578125	627.1384887695312	1429.413818359375	519.7570190429688	591.8523559570312	1361.70263671875	469.1433715820312	591.4728393554688	1104.99462890625	409.8703308105469	641.4293823242188	1078.396484375	491.8058166503906	497.7889404296875	862.8381958007812	546.86181640625	513.554931640625	844.6488647460938	463.3664245605469	571.2308349609375	1022.839111328125	413.0199279785156	490.2908325195312	671.8829345703125	554.6735229492188	486.4829406738281	755.5682373046875	564.3751220703125	492.5662231445312	754.51904296875	487.4982604980469	791.9810791015625	1669.809692382812	692.886474609375	579.2142944335938	1662.697265625	655.1681518554688	631.20947265625	1678.098510742188	769.7734375	729.3678588867188	1645.246459960938	573.041748046875	910.0218505859375	950.6332397460938	748.1334228515625	653.1610717773438	938.7296752929688	517.5471801757812	593.8637084960938	961.5115966796875	628.9750366210938	799.6773681640625	965.8506469726562	801.0364990234375	782.9453735351562	510.86962890625	921.2792358398438	844.1981201171875	649.5113525390625	876.8623046875	1033.57861328125	189.1048736572266	633.5947265625	926.9153442382812	339.3237609863281	778.8348999023438	951.8182983398438	71.63326263427734	775.2660522460938	923.4067993164062	94.71298217773438	715.3683471679688	1032.557495117188	120.1660308837891	717.71484375	985.45703125	216.2345428466797	561.2850952148438	663.4432983398438	500.3455505371094	680.794189453125	611.0428466796875	761.4601440429688	612.4812622070312	790.9969482421875	32.56900405883789	670.6326293945312	687.7547607421875	374.2104797363281	681.6022338867188	703.170166015625	37.86481475830078	872.4826049804688	769.8399047851562	45.20532608032227	843.5742797851562	709.9087524414062	41.77806091308594	764.74609375	862.5101318359375	36.42734146118164	665.0453491210938	
